<?xml version="1.0" encoding="iso-8859-1"?>
<!-- Generator: Adobe Illustrator 23.0.3, SVG Export Plug-In . SVG Version: 6.00 Build 0)  -->
<svg xmlns="http://www.w3.org/2000/svg" xmlns:xlink="http://www.w3.org/1999/xlink" version="1.1" id="Layer_1" x="0px" y="0px" viewBox="0 0 64 64" style="enable-background:new 0 0 64 64;" xml:space="preserve" width="128px" height="128px">
<circle style="fill:#9FDDFF;" cx="32" cy="32" r="28"/>
<circle style="fill:#85CBF8;" cx="32" cy="32" r="23"/>
<g>
	<g>
		<path style="fill:#FFFFFF;" d="M32,60c-1.194,0-2.429-0.102-3.885-0.32c-0.49-0.074-0.852-0.494-0.852-0.989V39.626h-5.186    c-0.552,0-1-0.447-1-1v-6.572c0-0.552,0.448-1,1-1h5.186v-3.373c0-7.469,3.646-11.417,10.544-11.417    c2.892,0,4.462,0.212,5.217,0.313c0.496,0.067,0.91,0.497,0.91,0.997v5.736c0,0.552-0.447,1-1,1h-4.104    c-2.022,0-2.447,2.257-2.447,4.151v2.592h6.486c0.292,0,0.569,0.127,0.759,0.349c0.19,0.222,0.274,0.515,0.229,0.803l-1.016,6.572    c-0.075,0.488-0.495,0.848-0.988,0.848h-5.471v19.118c0,0.5-0.369,0.923-0.865,0.991C34.193,59.916,33.075,60,32,60z"/>
		<path style="fill:#8D6C9F;" d="M37.808,17.263c2.882,0,4.405,0.214,5.127,0.311v5.736h-4.104c-2.554,0-3.446,2.422-3.446,5.152    v3.592h7.486l-1.016,6.572h-6.47v20.119C34.275,58.895,33.151,59,32,59c-1.273,0-2.514-0.126-3.737-0.309V38.626h-6.186v-6.572    h6.186v-4.373C28.263,20.442,31.791,17.263,37.808,17.263 M42.871,32.054h0.005 M37.808,15.263    c-7.444,0-11.544,4.41-11.544,12.418v2.373h-4.186c-1.105,0-2,0.895-2,2v6.572c0,1.105,0.895,2,2,2h4.186v18.065    c0,0.99,0.724,1.831,1.703,1.978C29.471,60.895,30.752,61,32,61c1.117,0,2.278-0.087,3.653-0.274    c0.992-0.135,1.731-0.981,1.731-1.982V40.626h4.47c0.987,0,1.826-0.719,1.977-1.694l1-6.468c0.028-0.132,0.042-0.269,0.042-0.409    c0-1.105-0.893-2-1.997-2h-0.005h-5.486v-1.592c0-1.177,0.188-3.152,1.446-3.152h4.104c1.105,0,2-0.895,2-2v-5.736    c0-1.001-0.741-1.848-1.733-1.982C42.382,15.482,40.766,15.263,37.808,15.263L37.808,15.263z"/>
	</g>
</g>
<g>
	<path style="fill:#8D6C9F;" d="M52.42,11.407C46.949,5.982,39.704,3,32.005,3c-0.042,0-0.085,0-0.127,0   c-7.746,0.033-15.017,3.08-20.471,8.581S2.967,24.377,3,32.123s3.08,15.016,8.58,20.47C17.051,58.018,24.296,61,31.995,61   c0.042,0,0.085,0,0.127,0c7.746-0.033,15.017-3.08,20.471-8.581S61.033,39.623,61,31.877S57.92,16.861,52.42,11.407z    M51.173,51.011C46.095,56.132,39.326,58.969,32.114,59c-7.206,0.023-14.004-2.749-19.125-7.827C7.867,46.095,5.03,39.326,5,32.114   s2.749-14.004,7.827-19.125S24.674,5.031,31.886,5c0.04,0,0.079,0,0.119,0c7.167,0,13.913,2.777,19.006,7.827   C56.133,17.905,58.97,24.674,59,31.886S56.251,45.89,51.173,51.011z"/>
</g>
<g>
	<path style="fill:#8D6C9F;" d="M24.379,4.018c-7.434,2.025-13.639,6.807-17.49,13.474c-0.021,0.036-0.043,0.074-0.064,0.11   c-3.845,6.724-4.843,14.545-2.807,22.019s6.86,13.708,13.584,17.553s14.544,4.842,22.017,2.807   c7.434-2.025,13.639-6.807,17.49-13.474c0.021-0.036,0.043-0.074,0.064-0.11c3.845-6.724,4.843-14.545,2.807-22.019   c-2.036-7.474-6.86-13.708-13.584-17.553S31.853,1.983,24.379,4.018z M58.051,24.904c1.895,6.958,0.967,14.239-2.613,20.5   c-3.584,6.252-9.384,10.752-16.342,12.647c-6.959,1.896-14.239,0.968-20.5-2.613c-6.26-3.581-10.752-9.384-12.647-16.342   s-0.967-14.239,2.613-20.5c0.02-0.035,0.04-0.068,0.06-0.103c3.584-6.206,9.363-10.659,16.283-12.544   c6.959-1.896,14.239-0.968,20.5,2.613S56.156,17.946,58.051,24.904z"/>
</g>
<path style="fill:#8D6C9F;" d="M49.364,41.925c0,0.001-0.001,0.003-0.002,0.004c-0.274,0.479-0.107,1.089,0.372,1.364l1.736,0.992  c0.478,0.274,1.087,0.109,1.363-0.368c0-0.001,0.002-0.003,0.002-0.003c0.275-0.48,0.108-1.09-0.371-1.365l-1.736-0.992  C50.248,41.283,49.639,41.448,49.364,41.925z"/>
<path style="fill:#8D6C9F;" d="M52.413,36.747c-0.535-0.141-1.08,0.182-1.222,0.712c-0.14,0.535,0.178,1.082,0.712,1.222l1.934,0.51  c0.446,0.118,0.9-0.085,1.12-0.466c0.044-0.076,0.078-0.158,0.101-0.247c0.14-0.535-0.178-1.082-0.712-1.222L52.413,36.747z"/>
<path style="fill:#8D6C9F;" d="M42.618,48.728c-0.477,0.278-0.638,0.89-0.36,1.367l1.007,1.728c0.278,0.477,0.89,0.638,1.368,0.36  c0.155-0.091,0.278-0.217,0.362-0.363c0.174-0.3,0.186-0.684-0.001-1.004l-1.007-1.728C43.708,48.611,43.096,48.45,42.618,48.728z"/>
<path style="fill:#8D6C9F;" d="M52.799,31.664c-0.553,0.003-0.999,0.45-0.996,1.005c0.002,0.552,0.452,0.998,1.004,0.995l2-0.008  c0.37-0.002,0.691-0.203,0.863-0.501c0.086-0.148,0.134-0.32,0.134-0.504c-0.002-0.552-0.452-0.998-1.004-0.995L52.799,31.664z"/>
<path style="fill:#8D6C9F;" d="M46.438,45.772c-0.381,0.386-0.387,1.025,0.005,1.414l1.42,1.409  c0.392,0.389,1.025,0.386,1.414-0.005c0.062-0.063,0.115-0.131,0.157-0.205c0.221-0.383,0.167-0.883-0.163-1.21l-1.42-1.409  C47.46,45.378,46.827,45.38,46.438,45.772z"/>
<path style="fill:#8D6C9F;" d="M24.227,11.478c0.713-0.258,1.452-0.48,2.196-0.658c0.156-0.037,0.293-0.11,0.408-0.206  c0.281-0.236,0.421-0.62,0.33-1c-0.129-0.537-0.67-0.868-1.206-0.738c-0.813,0.195-1.622,0.438-2.406,0.72  c-0.518,0.187-0.789,0.76-0.601,1.28C23.133,11.396,23.706,11.665,24.227,11.478z"/>
<path style="fill:#8D6C9F;" d="M11.32,24.476c0.129-0.109,0.233-0.252,0.295-0.423c1.626-4.475,4.777-8.304,8.868-10.785  c0.477-0.295,0.624-0.902,0.338-1.374c-0.286-0.472-0.902-0.623-1.373-0.337c-4.483,2.717-7.93,6.912-9.71,11.813  c-0.189,0.52,0.078,1.093,0.599,1.282C10.682,24.779,11.055,24.699,11.32,24.476z"/>
</svg>
